<svg xmlns="http://www.w3.org/2000/svg" viewBox="0 0 1440 320">
    <defs>
        <linearGradient id="gradient1" x1="0%" y1="0%" x2="100%" y2="0%">
            <stop offset="0%" style="stop-color: #006064; stop-opacity: 1;"/>
            <stop offset="100%" style="stop-color: #0072e5; stop-opacity: 1;"/>
        </linearGradient>
    </defs>

    <path fill="url(#gradient1)" fill-opacity="1"
          d="M0,256L49,220C96,184,192,128,288,138.7C384,149,480,213,576,226.7C672,240,768,173,864,110.7C960,48,1056,16,1152,16C1248,16,1344,48,1392,64L1440,80L1440,320L1392,320C1344,320,1248,320,1152,320C1056,320,960,320,864,320C768,320,672,320,576,320C480,320,384,320,288,320C192,320,96,320,48,320L0,320Z"></path>
</svg>